Newsreader-MediumItalic.ufo
<glyph name="comma" format="2">
  <advance width="460.0"/>
  <unicode hex="002C"/>
  <outline>
    <contour>
      <point x="-136.8" y="-301.0" type="curve"/>
      <point x="-104.0" y="-356.8" type="line"/>
      <point x="209.8" y="-158.6"/>
      <point x="286.6" y="-20.2"/>
      <point x="286.6" y="120.0" type="curve" smooth="yes"/>
      <point x="286.6" y="202.2"/>
      <point x="237.2" y="248.2"/>
      <point x="167.6" y="248.2" type="curve" smooth="yes"/>
      <point x="80.8" y="248.2"/>
      <point x="19.6" y="188.4"/>
      <point x="19.6" y="108.8" type="curve" smooth="yes"/>
      <point x="19.6" y="70.4"/>
      <point x="108.4" y="46.6"/>
      <point x="108.4" y="-28.2" type="curve" smooth="yes"/>
      <point x="108.4" y="-96.0"/>
      <point x="54.8" y="-183.6"/>
    </contour>
  </outline>
</glyph>
<glyph name="hyphen" format="2">
  <advance width="671.0"/>
  <unicode hex="002D"/>
  <outline>
    <contour>
      <point x="142.8" y="507.4" type="line"/>
      <point x="101.2" y="368.8" type="line"/>
      <point x="533.4" y="368.8" type="line"/>
      <point x="575.0" y="507.4" type="line"/>
    </contour>
  </outline>
</glyph>
<glyph name="semicolon" format="2">
  <advance width="520.2"/>
  <unicode hex="003B"/>
  <outline>
    <contour>
      <point x="-125.4" y="-301.0" type="curve"/>
      <point x="-92.6" y="-356.8" type="line"/>
      <point x="221.2" y="-158.6"/>
      <point x="298.0" y="-20.2"/>
      <point x="298.0" y="120.0" type="curve" smooth="yes"/>
      <point x="298.0" y="202.2"/>
      <point x="248.6" y="248.2"/>
      <point x="179.0" y="248.2" type="curve" smooth="yes"/>
      <point x="92.2" y="248.2"/>
      <point x="31.0" y="188.4"/>
      <point x="31.0" y="108.8" type="curve" smooth="yes"/>
      <point x="31.0" y="70.4"/>
      <point x="119.8" y="46.6"/>
      <point x="119.8" y="-28.2" type="curve" smooth="yes"/>
      <point x="119.8" y="-96.0"/>
      <point x="66.2" y="-183.6"/>
    </contour>
    <contour>
      <point x="370.0" y="869.6" type="curve" smooth="yes"/>
      <point x="281.4" y="869.6"/>
      <point x="216.2" y="800.2"/>
      <point x="216.2" y="716.0" type="curve" smooth="yes"/>
      <point x="216.2" y="653.4"/>
      <point x="261.4" y="604.6"/>
      <point x="333.0" y="604.6" type="curve" smooth="yes"/>
      <point x="421.6" y="604.6"/>
      <point x="486.8" y="674.0"/>
      <point x="486.8" y="758.2" type="curve" smooth="yes"/>
      <point x="486.8" y="820.8"/>
      <point x="441.6" y="869.6"/>
    </contour>
  </outline>
</glyph>
<glyph name="I" format="2">
  <advance width="662.2"/>
  <unicode hex="0049"/>
  <anchor x="596.4" y="1340.0" name="UCtop"/>
  <anchor x="240.4" y="0.0" name="right"/>
  <anchor x="204.0" y="0.0" name="bottom"/>
  <outline>
    <contour>
      <point x="484.0" y="1254.2" type="line"/>
      <point x="130.2" y="89.4" type="line"/>
      <point x="-29.0" y="39.2" type="line"/>
      <point x="-41.2" y="0.0" type="line"/>
      <point x="447.0" y="0.0" type="line"/>
      <point x="459.2" y="39.2" type="line"/>
      <point x="324.6" y="85.8" type="line"/>
      <point x="678.4" y="1250.6" type="line"/>
      <point x="837.6" y="1300.8" type="line"/>
      <point x="849.8" y="1340.0" type="line"/>
      <point x="361.6" y="1340.0" type="line"/>
      <point x="349.4" y="1300.8" type="line"/>
    </contour>
  </outline>
</glyph>
<glyph name="X" format="2">
  <advance width="1342.0"/>
  <unicode hex="0058"/>
  <anchor x="944.8" y="1340.0" name="UCtop"/>
  <anchor x="535.8" y="0.0" name="bottom"/>
  <outline>
    <contour>
      <point x="741.8" y="642.6" type="line"/>
      <point x="801.4" y="682.2" type="line"/>
      <point x="1387.0" y="1246.6" type="line"/>
      <point x="1548.6" y="1300.8" type="line"/>
      <point x="1561.0" y="1340.0" type="line"/>
      <point x="1145.0" y="1340.0" type="line"/>
      <point x="1132.6" y="1300.8" type="line"/>
      <point x="1270.2" y="1249.8" type="line"/>
      <point x="764.0" y="752.0" type="line"/>
      <point x="701.2" y="710.6" type="line"/>
      <point x="48.0" y="93.4" type="line"/>
      <point x="-113.6" y="39.2" type="line"/>
      <point x="-126.0" y="0.0" type="line"/>
      <point x="291.0" y="0.0" type="line"/>
      <point x="303.4" y="39.2" type="line"/>
      <point x="167.6" y="90.2" type="line"/>
    </contour>
    <contour>
      <point x="895.2" y="90.2" type="line"/>
      <point x="728.0" y="39.2" type="line"/>
      <point x="715.6" y="0.0" type="line"/>
      <point x="1228.2" y="0.0" type="line"/>
      <point x="1240.8" y="39.2" type="line"/>
      <point x="1106.2" y="92.2" type="line"/>
      <point x="839.0" y="753.6" type="line"/>
      <point x="827.0" y="781.8" type="line"/>
      <point x="640.8" y="1251.4" type="line"/>
      <point x="811.2" y="1300.8" type="line"/>
      <point x="823.6" y="1340.0" type="line"/>
      <point x="311.0" y="1340.0" type="line"/>
      <point x="298.6" y="1300.8" type="line"/>
      <point x="429.2" y="1249.4" type="line"/>
      <point x="672.6" y="649.8" type="line"/>
      <point x="683.6" y="624.0" type="line"/>
    </contour>
  </outline>
</glyph>
<glyph name="bracketright" format="2">
  <advance width="611.2"/>
  <unicode hex="005D"/>
  <outline>
    <contour>
      <point x="724.4" y="1399.8" type="line"/>
      <point x="327.0" y="1399.8" type="line"/>
      <point x="304.0" y="1323.8" type="line"/>
      <point x="555.0" y="1323.8" type="line"/>
      <point x="95.2" y="-179.6" type="line"/>
      <point x="-155.8" y="-179.6" type="line"/>
      <point x="-179.4" y="-255.6" type="line"/>
      <point x="218.8" y="-255.6" type="line"/>
    </contour>
  </outline>
</glyph>
<glyph name="l" format="2">
  <advance width="523.2"/>
  <unicode hex="006C"/>
  <anchor x="507.6" y="1444.0" name="UCtop"/>
  <anchor x="98.0" y="0.0" name="bottom"/>
  <anchor x="642.6" y="1399.0" name="right"/>
  <anchor x="584.2" y="546.0" name="mid"/>
  <outline>
    <contour>
      <point x="397.0" y="1250.4" type="curve"/>
      <point x="30.2" y="50.6" type="line" smooth="yes"/>
      <point x="14.0" y="-0.5999999999999996"/>
      <point x="48.6" y="-22.0"/>
      <point x="124.6" y="-22.0" type="curve" smooth="yes"/>
      <point x="229.4" y="-22.0"/>
      <point x="346.0" y="34.2"/>
      <point x="490.6" y="208.2" type="curve"/>
      <point x="459.4" y="242.2" type="line"/>
      <point x="365.6" y="154.8"/>
      <point x="267.6" y="111.2"/>
      <point x="191.4" y="119.4" type="curve"/>
      <point x="212.4" y="79.4" type="line"/>
      <point x="623.8" y="1421.0" type="line"/>
      <point x="597.6" y="1421.0" type="line"/>
      <point x="284.6" y="1366.8" type="line"/>
      <point x="274.8" y="1335.4" type="line"/>
      <point x="331.0" y="1310.6"/>
      <point x="361.6" y="1286.6"/>
    </contour>
  </outline>
</glyph>
<glyph name="x" format="2">
  <advance width="948.0"/>
  <unicode hex="0078"/>
  <anchor x="598.4" y="856.0" name="top"/>
  <anchor x="363.2" y="0.0" name="bottom"/>
  <outline>
    <contour>
      <point x="515.2" y="404.4" type="line"/>
      <point x="629.8" y="566.4" type="line" smooth="yes"/>
      <point x="710.8" y="681.8"/>
      <point x="764.4" y="716.6"/>
      <point x="806.2" y="716.6" type="curve" smooth="yes"/>
      <point x="825.2" y="716.6"/>
      <point x="838.6" y="708.0"/>
      <point x="856.6" y="681.6" type="curve" smooth="yes"/>
      <point x="874.6" y="655.2"/>
      <point x="884.8" y="648.2"/>
      <point x="901.6" y="648.2" type="curve" smooth="yes"/>
      <point x="959.2" y="648.2"/>
      <point x="1013.0" y="697.4"/>
      <point x="1013.0" y="767.6" type="curve" smooth="yes"/>
      <point x="1013.0" y="827.8"/>
      <point x="971.6" y="878.0"/>
      <point x="895.0" y="878.0" type="curve" smooth="yes"/>
      <point x="810.6" y="878.0"/>
      <point x="742.8" y="834.4"/>
      <point x="653.4" y="708.0" type="curve" smooth="yes"/>
      <point x="494.6" y="482.8" type="line"/>
      <point x="439.4" y="462.6" type="line"/>
      <point x="315.4" y="290.2" type="line" smooth="yes"/>
      <point x="230.2" y="171.0"/>
      <point x="180.0" y="139.4"/>
      <point x="142.2" y="139.4" type="curve" smooth="yes"/>
      <point x="123.6" y="139.4"/>
      <point x="110.0" y="148.0"/>
      <point x="93.6" y="171.6" type="curve" smooth="yes"/>
      <point x="77.2" y="195.2"/>
      <point x="66.0" y="207.8"/>
      <point x="46.8" y="207.8" type="curve" smooth="yes"/>
      <point x="-10.4" y="207.8"/>
      <point x="-64.6" y="159.0"/>
      <point x="-64.6" y="88.4" type="curve" smooth="yes"/>
      <point x="-64.6" y="28.2"/>
      <point x="-24.0" y="-22.0"/>
      <point x="53.4" y="-22.0" type="curve" smooth="yes"/>
      <point x="136.2" y="-22.0"/>
      <point x="201.0" y="17.0"/>
      <point x="292.6" y="146.4" type="curve" smooth="yes"/>
      <point x="461.8" y="385.2" type="line"/>
    </contour>
    <contour>
      <point x="895.8" y="334.6" type="curve"/>
      <point x="845.0" y="334.6" type="line"/>
      <point x="746.4" y="151.2"/>
      <point x="702.0" y="116.4"/>
      <point x="650.0" y="116.4" type="curve" smooth="yes"/>
      <point x="634.2" y="116.4"/>
      <point x="630.6" y="120.0"/>
      <point x="620.8" y="167.0" type="curve" smooth="yes"/>
      <point x="488.0" y="793.8" type="line" smooth="yes"/>
      <point x="474.8" y="856.6"/>
      <point x="450.2" y="878.0"/>
      <point x="397.4" y="878.0" type="curve" smooth="yes"/>
      <point x="276.6" y="878.0"/>
      <point x="180.0" y="799.8"/>
      <point x="111.6" y="533.4" type="curve"/>
      <point x="164.0" y="533.4" type="line"/>
      <point x="215.4" y="687.6"/>
      <point x="271.0" y="736.4"/>
      <point x="319.4" y="736.4" type="curve" smooth="yes"/>
      <point x="332.2" y="736.4"/>
      <point x="334.4" y="731.8"/>
      <point x="341.8" y="699.0" type="curve" smooth="yes"/>
      <point x="479.4" y="61.4" type="line" smooth="yes"/>
      <point x="493.6" y="-2.1999999999999997"/>
      <point x="520.4" y="-22.0"/>
      <point x="574.8" y="-22.0" type="curve" smooth="yes"/>
      <point x="700.4" y="-22.0"/>
      <point x="778.8" y="43.6"/>
    </contour>
  </outline>
</glyph>
<glyph name="z" format="2">
  <advance width="811.0"/>
  <unicode hex="007A"/>
  <anchor x="488.6" y="856.0" name="top"/>
  <anchor x="338.2" y="0.0" name="bottom"/>
  <outline>
    <contour>
      <point x="-19.8" y="25.8" type="line"/>
      <point x="40.2" y="-20.0" type="line"/>
      <point x="855.6" y="844.4" type="line"/>
      <point x="800.4" y="896.2" type="line"/>
    </contour>
    <contour>
      <point x="129.6" y="564.0" type="line"/>
      <point x="223.2" y="709.2"/>
      <point x="254.8" y="722.0"/>
      <point x="389.6" y="685.6" type="curve" smooth="yes"/>
      <point x="617.6" y="623.6" type="line"/>
      <point x="743.2" y="769.4" type="line"/>
      <point x="422.2" y="855.0" type="line" smooth="yes"/>
      <point x="276.8" y="893.4"/>
      <point x="198.2" y="851.2"/>
      <point x="86.0" y="583.0" type="curve"/>
    </contour>
    <contour>
      <point x="416.6" y="-0.5999999999999996" type="line" smooth="yes"/>
      <point x="523.8" y="-49.0"/>
      <point x="584.6" y="-32.4"/>
      <point x="764.0" y="238.0" type="curve"/>
      <point x="725.6" y="267.0" type="line"/>
      <point x="604.8" y="122.6"/>
      <point x="570.6" y="112.0"/>
      <point x="464.4" y="165.8" type="curve" smooth="yes"/>
      <point x="271.4" y="263.2" type="line"/>
      <point x="139.0" y="123.4" type="line"/>
    </contour>
  </outline>
</glyph>
<glyph name="guillemotleft" format="2">
  <advance width="961.0"/>
  <unicode hex="00AB"/>
  <outline>
    <contour>
      <point x="249.8" y="497.4" type="line"/>
      <point x="198.6" y="331.4" type="line"/>
      <point x="611.6" y="797.6" type="line"/>
      <point x="571.6" y="844.0" type="line"/>
      <point x="68.6" y="456.0" type="line"/>
      <point x="54.0" y="408.0" type="line"/>
      <point x="322.0" y="20.0" type="line"/>
      <point x="375.2" y="43.6" type="line"/>
    </contour>
    <contour>
      <point x="639.4" y="497.4" type="line"/>
      <point x="588.2" y="331.4" type="line"/>
      <point x="1001.2" y="797.6" type="line"/>
      <point x="961.2" y="844.0" type="line"/>
      <point x="458.2" y="456.0" type="line"/>
      <point x="443.6" y="408.0" type="line"/>
      <point x="711.6" y="20.0" type="line"/>
      <point x="764.8" y="43.6" type="line"/>
    </contour>
  </outline>
</glyph>
<glyph name="oe" format="2">
  <advance width="1340.6"/>
  <unicode hex="0153"/>
  <anchor x="811.4" y="856.0" name="top"/>
  <anchor x="568.0" y="0.0" name="bottom"/>
  <outline>
    <contour>
      <point x="545.0" y="878.0" type="curve" smooth="yes"/>
      <point x="271.8" y="878.0"/>
      <point x="58.2" y="598.4"/>
      <point x="58.2" y="284.0" type="curve" smooth="yes"/>
      <point x="58.2" y="92.8"/>
      <point x="163.0" y="-22.0"/>
      <point x="340.6" y="-22.0" type="curve" smooth="yes"/>
      <point x="468.4" y="-22.0"/>
      <point x="591.8" y="43.8"/>
      <point x="687.2" y="161.4" type="curve"/>
      <point x="640.0" y="165.4" type="line"/>
      <point x="673.4" y="41.2"/>
      <point x="761.8" y="-22.0"/>
      <point x="885.6" y="-22.0" type="curve" smooth="yes"/>
      <point x="1045.8" y="-22.0"/>
      <point x="1141.8" y="48.4"/>
      <point x="1245.2" y="290.6" type="curve"/>
      <point x="1187.2" y="290.6" type="line"/>
      <point x="1114.4" y="150.2"/>
      <point x="1043.0" y="111.0"/>
      <point x="949.6" y="111.0" type="curve" smooth="yes"/>
      <point x="860.0" y="111.0"/>
      <point x="799.8" y="162.0"/>
      <point x="799.8" y="298.6" type="curve" smooth="yes"/>
      <point x="799.8" y="499.6"/>
      <point x="901.4" y="803.0"/>
      <point x="1078.4" y="803.0" type="curve" smooth="yes"/>
      <point x="1134.2" y="803.0"/>
      <point x="1164.0" y="767.8"/>
      <point x="1164.0" y="714.4" type="curve" smooth="yes"/>
      <point x="1164.0" y="621.0"/>
      <point x="1090.8" y="543.2"/>
      <point x="773.8" y="448.8" type="curve"/>
      <point x="770.8" y="373.0" type="line"/>
      <point x="936.0" y="421.6"/>
      <point x="1102.8" y="479.2"/>
      <point x="1257.4" y="544.0" type="curve"/>
      <point x="1296.8" y="579.0"/>
      <point x="1323.8" y="642.2"/>
      <point x="1323.8" y="701.0" type="curve" smooth="yes"/>
      <point x="1323.8" y="794.4"/>
      <point x="1261.0" y="878.0"/>
      <point x="1108.0" y="878.0" type="curve" smooth="yes"/>
      <point x="982.2" y="878.0"/>
      <point x="831.4" y="800.4"/>
      <point x="746.6" y="670.8" type="curve"/>
      <point x="792.0" y="666.8" type="line"/>
      <point x="772.4" y="795.0"/>
      <point x="695.4" y="878.0"/>
    </contour>
    <contour>
      <point x="341.6" y="53.0" type="curve" smooth="yes"/>
      <point x="267.4" y="53.0"/>
      <point x="234.4" y="104.8"/>
      <point x="234.4" y="223.2" type="curve" smooth="yes"/>
      <point x="234.4" y="486.0"/>
      <point x="386.6" y="803.0"/>
      <point x="544.0" y="803.0" type="curve" smooth="yes"/>
      <point x="618.2" y="803.0"/>
      <point x="651.2" y="751.2"/>
      <point x="651.2" y="632.8" type="curve" smooth="yes"/>
      <point x="651.2" y="370.0"/>
      <point x="499.0" y="53.0"/>
    </contour>
  </outline>
</glyph>
<glyph name="uni030C" format="2">
  <unicode hex="030C"/>
  <anchor x="130.6" y="856.0" name="_top"/>
  <anchor x="278.4" y="1340.0" name="top"/>
  <outline>
    <contour>
      <point x="551.2" y="1340.0" type="line"/>
      <point x="467.2" y="1340.0" type="line"/>
      <point x="181.2" y="1133.6" type="line"/>
      <point x="224.8" y="1133.6" type="line"/>
      <point x="66.6" y="1340.0" type="line"/>
      <point x="5.799999999999999" y="1340.0" type="line"/>
      <point x="94.6" y="1009.0" type="line"/>
      <point x="260.4" y="1009.0" type="line"/>
    </contour>
  </outline>
</glyph>
<glyph name="dotbelowcomb" format="2">
  <unicode hex="0323"/>
  <anchor x="-130.6" y="0.0" name="_bottom"/>
  <anchor x="-292.6" y="-530.0" name="bottom"/>
  <outline>
    <contour>
      <point x="-208.4" y="-378.0" type="curve" smooth="yes"/>
      <point x="-134.2" y="-378.0"/>
      <point x="-83.2" y="-324.2"/>
      <point x="-83.2" y="-254.2" type="curve" smooth="yes"/>
      <point x="-83.2" y="-184.2"/>
      <point x="-134.2" y="-130.0"/>
      <point x="-208.4" y="-130.0" type="curve" smooth="yes"/>
      <point x="-282.6" y="-130.0"/>
      <point x="-333.6" y="-184.2"/>
      <point x="-333.6" y="-254.2" type="curve" smooth="yes"/>
      <point x="-333.6" y="-324.2"/>
      <point x="-282.6" y="-378.0"/>
    </contour>
  </outline>
</glyph>
<glyph name="peseta" format="2">
  <advance width="1140.0"/>
  <unicode hex="20A7"/>
  <outline>
    <contour>
      <point x="637.2" y="202.4" type="curve" smooth="yes"/>
      <point x="889.2" y="1027.4" type="line"/>
      <point x="830.2" y="1027.4" type="line"/>
      <point x="777.6" y="929.0"/>
      <point x="733.0" y="877.2"/>
      <point x="638.6" y="842.6" type="curve"/>
      <point x="617.0" y="772.0" type="line"/>
      <point x="667.8" y="772.0" type="line"/>
      <point x="485.8" y="175.6" type="line" smooth="yes"/>
      <point x="444.4" y="41.2"/>
      <point x="487.2" y="-16.0"/>
      <point x="566.8" y="-16.0" type="curve" smooth="yes"/>
      <point x="604.6" y="-16.0"/>
      <point x="655.4" y="-3.2"/>
      <point x="734.6" y="62.0" type="curve"/>
      <point x="750.8" y="117.8" type="line"/>
      <point x="719.4" y="103.8"/>
      <point x="690.6" y="101.8"/>
      <point x="668.2" y="101.8" type="curve" smooth="yes"/>
      <point x="617.6" y="101.8"/>
      <point x="615.2" y="131.2"/>
    </contour>
    <contour>
      <point x="765.0" y="772.0" type="line"/>
      <point x="916.4" y="772.0" type="line"/>
      <point x="959.4" y="883.8" type="line"/>
      <point x="813.6" y="883.8" type="line"/>
    </contour>
    <contour>
      <point x="296.4" y="1268.2" type="line"/>
      <point x="-70.8" y="71.8" type="line"/>
      <point x="-179.4" y="34.8" type="line"/>
      <point x="-190.0" y="0.0" type="line"/>
      <point x="159.6" y="0.0" type="line"/>
      <point x="170.2" y="34.8" type="line"/>
      <point x="83.0" y="72.6" type="line"/>
      <point x="471.4" y="1340.0" type="line"/>
      <point x="219.8" y="1340.0" type="line"/>
      <point x="209.2" y="1305.2" type="line"/>
    </contour>
    <contour>
      <point x="1203.2" y="905.0" type="curve" smooth="yes"/>
      <point x="1031.2" y="905.0"/>
      <point x="933.0" y="798.2"/>
      <point x="933.0" y="598.2" type="curve" smooth="yes"/>
      <point x="933.0" y="450.6"/>
      <point x="1021.4" y="385.0"/>
      <point x="1021.4" y="224.8" type="curve" smooth="yes"/>
      <point x="1021.4" y="125.4"/>
      <point x="974.6" y="77.0"/>
      <point x="885.2" y="77.0" type="curve" smooth="yes"/>
      <point x="874.0" y="77.0"/>
      <point x="863.4" y="77.8"/>
      <point x="852.6" y="84.2" type="curve"/>
      <point x="883.0" y="14.0" type="line"/>
      <point x="868.2" y="258.0" type="line"/>
      <point x="824.0" y="258.0" type="line"/>
      <point x="779.0" y="5.0" type="line"/>
      <point x="804.8" y="-9.0"/>
      <point x="842.2" y="-15.0"/>
      <point x="890.0" y="-15.0" type="curve" smooth="yes"/>
      <point x="1053.8" y="-15.0"/>
      <point x="1160.4" y="91.2"/>
      <point x="1160.4" y="290.8" type="curve" smooth="yes"/>
      <point x="1160.4" y="457.8"/>
      <point x="1068.6" y="547.4"/>
      <point x="1068.6" y="680.4" type="curve" smooth="yes"/>
      <point x="1068.6" y="769.2"/>
      <point x="1102.8" y="812.2"/>
      <point x="1195.2" y="812.2" type="curve" smooth="yes"/>
      <point x="1207.0" y="812.2"/>
      <point x="1218.6" y="809.4"/>
      <point x="1227.0" y="803.8" type="curve"/>
      <point x="1199.8" y="862.6" type="line"/>
      <point x="1200.8" y="642.6" type="line"/>
      <point x="1245.0" y="642.6" type="line"/>
      <point x="1306.4" y="882.0" type="line"/>
      <point x="1283.6" y="896.0"/>
      <point x="1244.2" y="905.0"/>
    </contour>
    <contour>
      <point x="301.2" y="703.6" type="curve" smooth="yes"/>
      <point x="244.8" y="703.6" type="line"/>
      <point x="187.2" y="619.2" type="line"/>
      <point x="311.0" y="619.2" type="line" smooth="yes"/>
      <point x="525.6" y="619.2"/>
      <point x="671.8" y="891.0"/>
      <point x="671.8" y="1146.6" type="curve" smooth="yes"/>
      <point x="671.8" y="1278.4"/>
      <point x="601.2" y="1340.0"/>
      <point x="476.8" y="1340.0" type="curve" smooth="yes"/>
      <point x="399.2" y="1340.0" type="line"/>
      <point x="405.6" y="1255.8" type="line"/>
      <point x="441.8" y="1255.8" type="line" smooth="yes"/>
      <point x="521.4" y="1255.8"/>
      <point x="536.4" y="1221.2"/>
      <point x="536.4" y="1154.2" type="curve" smooth="yes"/>
      <point x="536.4" y="985.0"/>
      <point x="441.8" y="703.6"/>
    </contour>
  </outline>
</glyph>
<glyph name="uni27E8" format="2">
  <advance width="1000.0"/>
  <unicode hex="27E8"/>
  <outline>
    <contour>
      <point x="352.4" y="627.8" type="line"/>
      <point x="1086.2" y="1340.0" type="line"/>
      <point x="959.2" y="1340.0" type="line"/>
      <point x="269.8" y="677.0" type="line"/>
      <point x="265.6" y="662.0" type="line"/>
      <point x="578.2" y="0.0" type="line"/>
      <point x="677.2" y="0.0" type="line"/>
      <point x="365.4" y="681.4" type="line"/>
    </contour>
  </outline>
</glyph>
<glyph name="f_f" format="2">
  <advance width="1116.8"/>
  <unicode hex="FB00"/>
  <outline>
    <contour>
      <point x="1227.6" y="856.0" type="line"/>
      <point x="119.0" y="856.0" type="line"/>
      <point x="103.0" y="770.2" type="line"/>
      <point x="1210.6" y="770.2" type="line"/>
    </contour>
    <contour>
      <point x="315.2" y="845.2" type="curve" smooth="yes"/>
      <point x="147.2" y="4.399999999999999" type="line" smooth="yes"/>
      <point x="76.0" y="-354.8"/>
      <point x="2.4" y="-432.0"/>
      <point x="-100.6" y="-432.0" type="curve" smooth="yes"/>
      <point x="-135.0" y="-432.0"/>
      <point x="-169.8" y="-416.0"/>
      <point x="-203.0" y="-374.2" type="curve" smooth="yes"/>
      <point x="-236.2" y="-332.4"/>
      <point x="-259.6" y="-307.0"/>
      <point x="-285.0" y="-307.0" type="curve" smooth="yes"/>
      <point x="-333.0" y="-307.0"/>
      <point x="-370.6" y="-351.8"/>
      <point x="-370.6" y="-401.8" type="curve" smooth="yes"/>
      <point x="-370.6" y="-476.0"/>
      <point x="-309.4" y="-530.0"/>
      <point x="-183.6" y="-530.0" type="curve" smooth="yes"/>
      <point x="53.6" y="-530.0"/>
      <point x="247.0" y="-344.2"/>
      <point x="364.6" y="222.8" type="curve" smooth="yes"/>
      <point x="524.8" y="1006.4" type="line" smooth="yes"/>
      <point x="568.0" y="1217.0"/>
      <point x="651.0" y="1308.6"/>
      <point x="787.8" y="1308.6" type="curve" smooth="yes"/>
      <point x="885.4" y="1308.6"/>
      <point x="950.6" y="1261.4"/>
      <point x="994.4" y="1185.8" type="curve"/>
      <point x="1111.4" y="1307.4" type="line"/>
      <point x="1065.8" y="1361.2"/>
      <point x="979.0" y="1399.0"/>
      <point x="867.0" y="1399.0" type="curve" smooth="yes"/>
      <point x="595.6" y="1399.0"/>
      <point x="386.8" y="1204.4"/>
    </contour>
    <contour>
      <point x="822.0" y="867.2" type="curve" smooth="yes"/>
      <point x="639.0" y="-33.6" type="line" smooth="yes"/>
      <point x="581.2" y="-323.2"/>
      <point x="480.2" y="-402.0"/>
      <point x="334.4" y="-402.0" type="curve" smooth="yes"/>
      <point x="267.6" y="-402.0"/>
      <point x="206.6" y="-355.8"/>
      <point x="170.4" y="-277.0" type="curve"/>
      <point x="52.0" y="-377.0" type="line"/>
      <point x="73.4" y="-441.2"/>
      <point x="160.0" y="-500.0"/>
      <point x="289.0" y="-500.0" type="curve" smooth="yes"/>
      <point x="533.8" y="-500.0"/>
      <point x="750.6" y="-303.8"/>
      <point x="867.8" y="246.8" type="curve" smooth="yes"/>
      <point x="1031.6" y="1028.4" type="line" smooth="yes"/>
      <point x="1075.6" y="1239.2"/>
      <point x="1154.6" y="1330.6"/>
      <point x="1288.6" y="1330.6" type="curve" smooth="yes"/>
      <point x="1342.2" y="1330.6"/>
      <point x="1382.2" y="1308.4"/>
      <point x="1416.2" y="1269.6" type="curve" smooth="yes"/>
      <point x="1450.2" y="1230.8"/>
      <point x="1476.2" y="1186.0"/>
      <point x="1507.6" y="1186.0" type="curve" smooth="yes"/>
      <point x="1565.6" y="1186.0"/>
      <point x="1606.6" y="1227.4"/>
      <point x="1606.6" y="1280.2" type="curve" smooth="yes"/>
      <point x="1606.6" y="1359.4"/>
      <point x="1528.6" y="1421.0"/>
      <point x="1375.4" y="1421.0" type="curve" smooth="yes"/>
      <point x="1102.2" y="1421.0"/>
      <point x="895.2" y="1226.0"/>
    </contour>
  </outline>
</glyph>
<glyph name="fl" format="2">
  <advance width="1093.0"/>
  <unicode hex="FB02"/>
  <outline>
    <contour>
      <point x="102.8" y="770.2" type="line"/>
      <point x="689.6" y="770.2" type="line"/>
      <point x="707.8" y="856.0" type="line"/>
      <point x="118.8" y="856.0" type="line"/>
    </contour>
    <contour>
      <point x="364.6" y="222.8" type="curve" smooth="yes"/>
      <point x="527.6" y="1022.0" type="line" smooth="yes"/>
      <point x="570.4" y="1233.4"/>
      <point x="648.8" y="1324.2"/>
      <point x="802.6" y="1324.2" type="curve" smooth="yes"/>
      <point x="923.4" y="1324.2"/>
      <point x="964.8" y="1268.0"/>
      <point x="951.6" y="1199.4" type="curve" smooth="yes"/>
      <point x="600.0" y="50.6" type="line" smooth="yes"/>
      <point x="583.8" y="-0.5999999999999996"/>
      <point x="618.4" y="-22.0"/>
      <point x="694.4" y="-22.0" type="curve" smooth="yes"/>
      <point x="799.2" y="-22.0"/>
      <point x="915.8" y="34.2"/>
      <point x="1060.4" y="208.2" type="curve"/>
      <point x="1029.2" y="242.2" type="line"/>
      <point x="948.6" y="167.0"/>
      <point x="862.2" y="123.2"/>
      <point x="794.6" y="119.2" type="curve"/>
      <point x="1193.6" y="1421.0" type="line"/>
      <point x="1167.4" y="1421.0" type="line"/>
      <point x="1006.6" y="1353.6" type="line"/>
      <point x="1089.2" y="1351.4" type="line"/>
      <point x="1023.0" y="1395.6"/>
      <point x="950.8" y="1414.6"/>
      <point x="877.0" y="1414.6" type="curve" smooth="yes"/>
      <point x="603.0" y="1414.6"/>
      <point x="390.6" y="1224.6"/>
      <point x="318.0" y="860.8" type="curve" smooth="yes"/>
      <point x="147.2" y="4.399999999999999" type="line" smooth="yes"/>
      <point x="76.8" y="-354.8"/>
      <point x="2.4" y="-432.0"/>
      <point x="-100.6" y="-432.0" type="curve" smooth="yes"/>
      <point x="-135.0" y="-432.0"/>
      <point x="-169.8" y="-416.0"/>
      <point x="-203.0" y="-374.2" type="curve" smooth="yes"/>
      <point x="-236.2" y="-332.4"/>
      <point x="-259.6" y="-307.0"/>
      <point x="-285.0" y="-307.0" type="curve" smooth="yes"/>
      <point x="-333.0" y="-307.0"/>
      <point x="-370.6" y="-351.8"/>
      <point x="-370.6" y="-401.8" type="curve" smooth="yes"/>
      <point x="-370.6" y="-476.0"/>
      <point x="-309.4" y="-530.0"/>
      <point x="-183.6" y="-530.0" type="curve" smooth="yes"/>
      <point x="53.6" y="-530.0"/>
      <point x="248.0" y="-344.2"/>
    </contour>
  </outline>
</glyph>
<glyph name="f_f_l" format="2">
  <advance width="1595.4"/>
  <unicode hex="FB04"/>
  <outline>
    <contour>
      <point x="103.0" y="770.2" type="line"/>
      <point x="1178.4" y="770.2" type="line"/>
      <point x="1204.6" y="856.0" type="line"/>
      <point x="119.0" y="856.0" type="line"/>
    </contour>
    <contour>
      <point x="52.0" y="-377.0" type="line"/>
      <point x="73.4" y="-441.2"/>
      <point x="160.0" y="-500.0"/>
      <point x="289.0" y="-500.0" type="curve" smooth="yes"/>
      <point x="530.0" y="-500.0"/>
      <point x="749.2" y="-309.6"/>
      <point x="867.8" y="246.8" type="curve" smooth="yes"/>
      <point x="1030.0" y="1022.0" type="line" smooth="yes"/>
      <point x="1073.8" y="1233.2"/>
      <point x="1151.2" y="1324.2"/>
      <point x="1305.0" y="1324.2" type="curve" smooth="yes"/>
      <point x="1425.8" y="1324.2"/>
      <point x="1467.2" y="1268.0"/>
      <point x="1454.0" y="1199.4" type="curve" smooth="yes"/>
      <point x="1102.4" y="50.6" type="line" smooth="yes"/>
      <point x="1086.2" y="-0.5999999999999996"/>
      <point x="1120.8" y="-22.0"/>
      <point x="1196.8" y="-22.0" type="curve" smooth="yes"/>
      <point x="1301.6" y="-22.0"/>
      <point x="1418.2" y="34.2"/>
      <point x="1562.8" y="208.2" type="curve"/>
      <point x="1531.6" y="242.2" type="line"/>
      <point x="1451.0" y="167.0"/>
      <point x="1364.6" y="123.2"/>
      <point x="1297.0" y="119.2" type="curve"/>
      <point x="1696.0" y="1421.0" type="line"/>
      <point x="1669.8" y="1421.0" type="line"/>
      <point x="1509.0" y="1353.6" type="line"/>
      <point x="1591.6" y="1351.4" type="line"/>
      <point x="1533.4" y="1394.8"/>
      <point x="1462.8" y="1414.6"/>
      <point x="1379.4" y="1414.6" type="curve" smooth="yes"/>
      <point x="1105.4" y="1414.6"/>
      <point x="894.8" y="1224.2"/>
      <point x="820.4" y="860.8" type="curve" smooth="yes"/>
      <point x="639.0" y="-33.6" type="line" smooth="yes"/>
      <point x="581.8" y="-324.6"/>
      <point x="479.0" y="-402.0"/>
      <point x="334.4" y="-402.0" type="curve" smooth="yes"/>
      <point x="267.6" y="-402.0"/>
      <point x="206.6" y="-355.8"/>
      <point x="170.4" y="-277.0" type="curve"/>
    </contour>
    <contour>
      <point x="364.6" y="222.8" type="curve" smooth="yes"/>
      <point x="524.8" y="1006.4" type="line" smooth="yes"/>
      <point x="568.4" y="1219.2"/>
      <point x="653.0" y="1308.6"/>
      <point x="787.8" y="1308.6" type="curve" smooth="yes"/>
      <point x="887.6" y="1308.6"/>
      <point x="952.2" y="1258.2"/>
      <point x="994.4" y="1185.8" type="curve"/>
      <point x="1111.4" y="1307.4" type="line"/>
      <point x="1065.8" y="1361.2"/>
      <point x="979.0" y="1399.0"/>
      <point x="867.0" y="1399.0" type="curve" smooth="yes"/>
      <point x="600.2" y="1399.0"/>
      <point x="387.8" y="1209.2"/>
      <point x="315.2" y="845.2" type="curve" smooth="yes"/>
      <point x="147.2" y="4.399999999999999" type="line" smooth="yes"/>
      <point x="76.0" y="-354.8"/>
      <point x="2.4" y="-432.0"/>
      <point x="-100.6" y="-432.0" type="curve" smooth="yes"/>
      <point x="-135.0" y="-432.0"/>
      <point x="-169.8" y="-416.0"/>
      <point x="-203.0" y="-374.2" type="curve" smooth="yes"/>
      <point x="-236.2" y="-332.4"/>
      <point x="-259.6" y="-307.0"/>
      <point x="-285.0" y="-307.0" type="curve" smooth="yes"/>
      <point x="-333.0" y="-307.0"/>
      <point x="-370.6" y="-351.8"/>
      <point x="-370.6" y="-401.8" type="curve" smooth="yes"/>
      <point x="-370.6" y="-476.0"/>
      <point x="-309.4" y="-530.0"/>
      <point x="-183.6" y="-530.0" type="curve" smooth="yes"/>
      <point x="53.6" y="-530.0"/>
      <point x="247.0" y="-344.2"/>
    </contour>
  </outline>
</glyph>
<glyph name="caroncomb.alt" format="2">
  <anchor x="314.8" y="1399.0" name="_right"/>
  <outline>
    <contour>
      <point x="299.4" y="1026.0" type="line"/>
      <point x="372.0" y="1026.0" type="line"/>
      <point x="662.0" y="1377.8" type="line"/>
      <point x="663.8" y="1399.0" type="line"/>
      <point x="460.4" y="1399.0" type="line"/>
    </contour>
  </outline>
</glyph>
<glyph name="eight.lf" format="2">
  <advance width="1077.8"/>
  <outline>
    <contour>
      <point x="664.0" y="711.2" type="line"/>
      <point x="924.4" y="759.0"/>
      <point x="1095.2" y="891.6"/>
      <point x="1095.2" y="1091.8" type="curve" smooth="yes"/>
      <point x="1095.2" y="1235.8"/>
      <point x="977.8" y="1362.6"/>
      <point x="745.6" y="1362.6" type="curve" smooth="yes"/>
      <point x="476.8" y="1362.6"/>
      <point x="311.0" y="1198.6"/>
      <point x="311.0" y="978.2" type="curve" smooth="yes"/>
      <point x="311.0" y="796.6"/>
      <point x="441.8" y="707.0"/>
      <point x="562.2" y="623.0" type="curve" smooth="yes"/>
      <point x="682.6" y="539.0"/>
      <point x="794.0" y="463.8"/>
      <point x="794.0" y="324.4" type="curve" smooth="yes"/>
      <point x="794.0" y="160.2"/>
      <point x="666.4" y="61.2"/>
      <point x="484.6" y="61.2" type="curve" smooth="yes"/>
      <point x="313.2" y="61.2"/>
      <point x="225.0" y="158.6"/>
      <point x="225.0" y="310.0" type="curve" smooth="yes"/>
      <point x="225.0" y="470.0"/>
      <point x="333.2" y="608.4"/>
      <point x="587.8" y="674.2" type="curve"/>
      <point x="574.8" y="717.6" type="line"/>
      <point x="211.0" y="641.6"/>
      <point x="68.4" y="479.6"/>
      <point x="68.4" y="290.4" type="curve" smooth="yes"/>
      <point x="68.4" y="109.6"/>
      <point x="216.2" y="-22.0"/>
      <point x="475.8" y="-22.0" type="curve" smooth="yes"/>
      <point x="761.4" y="-22.0"/>
      <point x="961.6" y="132.6"/>
      <point x="961.6" y="386.2" type="curve" smooth="yes"/>
      <point x="961.6" y="577.4"/>
      <point x="821.2" y="668.8"/>
      <point x="696.0" y="752.0" type="curve" smooth="yes"/>
      <point x="570.8" y="835.2"/>
      <point x="464.0" y="909.4"/>
      <point x="464.0" y="1049.8" type="curve" smooth="yes"/>
      <point x="464.0" y="1189.4"/>
      <point x="577.8" y="1282.4"/>
      <point x="731.2" y="1282.4" type="curve" smooth="yes"/>
      <point x="878.4" y="1282.4"/>
      <point x="946.6" y="1207.4"/>
      <point x="946.6" y="1096.4" type="curve" smooth="yes"/>
      <point x="946.6" y="939.0"/>
      <point x="841.0" y="804.2"/>
      <point x="636.2" y="752.4" type="curve"/>
    </contour>
  </outline>
</glyph>
<glyph name="florin.lf" format="2">
  <advance width="1069.2"/>
  <outline>
    <contour>
      <point x="209.8" y="632.6" type="line"/>
      <point x="976.8" y="632.6" type="line"/>
      <point x="976.8" y="713.0" type="line"/>
      <point x="209.8" y="713.0" type="line"/>
    </contour>
    <contour>
      <point x="98.0" y="-274.0" type="curve" smooth="yes"/>
      <point x="338.2" y="-274.0"/>
      <point x="551.6" y="-93.0"/>
      <point x="634.2" y="424.6" type="curve" smooth="yes"/>
      <point x="714.4" y="914.4" type="line" smooth="yes"/>
      <point x="759.2" y="1193.8"/>
      <point x="816.6" y="1251.0"/>
      <point x="939.8" y="1251.0" type="curve" smooth="yes"/>
      <point x="1064.8" y="1251.0"/>
      <point x="1092.8" y="1135.4"/>
      <point x="1162.0" y="1135.4" type="curve" smooth="yes"/>
      <point x="1212.8" y="1135.4"/>
      <point x="1254.2" y="1169.0"/>
      <point x="1254.2" y="1223.0" type="curve" smooth="yes"/>
      <point x="1254.2" y="1293.0"/>
      <point x="1181.6" y="1352.6"/>
      <point x="1040.6" y="1352.6" type="curve" smooth="yes"/>
      <point x="804.0" y="1352.6"/>
      <point x="572.4" y="1200.8"/>
      <point x="506.8" y="787.2" type="curve" smooth="yes"/>
      <point x="425.4" y="275.8" type="line" smooth="yes"/>
      <point x="366.2" y="-100.6"/>
      <point x="281.0" y="-174.2"/>
      <point x="183.4" y="-174.2" type="curve" smooth="yes"/>
      <point x="69.6" y="-174.2"/>
      <point x="45.0" y="-68.2"/>
      <point x="-15.4" y="-68.2" type="curve" smooth="yes"/>
      <point x="-66.0" y="-68.2"/>
      <point x="-100.6" y="-100.4"/>
      <point x="-100.6" y="-148.8" type="curve" smooth="yes"/>
      <point x="-100.6" y="-216.0"/>
      <point x="-36.4" y="-274.0"/>
    </contour>
  </outline>
</glyph>
<glyph name="four.lf" format="2">
  <advance width="1129.4"/>
  <outline>
    <contour>
      <point x="845.6" y="1190.2" type="line"/>
      <point x="508.8" y="89.4" type="line"/>
      <point x="315.2" y="38.8" type="line"/>
      <point x="303.2" y="0.0" type="line"/>
      <point x="841.4" y="0.0" type="line"/>
      <point x="853.6" y="38.8" type="line"/>
      <point x="695.2" y="86.6" type="line"/>
      <point x="1084.0" y="1356.0" type="line"/>
      <point x="961.6" y="1356.0" type="line"/>
      <point x="24.6" y="460.2" type="line"/>
      <point x="6.199999999999999" y="401.2" type="line"/>
      <point x="1051.8" y="401.2" type="line"/>
      <point x="1154.6" y="577.6" type="line"/>
      <point x="969.8" y="549.6" type="line"/>
      <point x="159.0" y="549.6" type="line"/>
      <point x="170.4" y="506.6" type="line"/>
      <point x="939.0" y="1225.0" type="line"/>
    </contour>
  </outline>
</glyph>
<glyph name="hookabovecomb.case" format="2">
  <anchor x="278.4" y="1340.0" name="_UCtop"/>
  <anchor x="411.8" y="1779.2" name="UCtop"/>
  <outline>
    <contour>
      <point x="228.2" y="1655.4" type="line"/>
      <point x="370.6" y="1647.6"/>
      <point x="399.0" y="1623.6"/>
      <point x="399.0" y="1590.8" type="curve" smooth="yes"/>
      <point x="399.0" y="1550.6"/>
      <point x="376.8" y="1523.0"/>
      <point x="251.6" y="1504.2" type="curve"/>
      <point x="245.2" y="1442.6" type="line"/>
      <point x="495.8" y="1475.6"/>
      <point x="536.0" y="1559.8"/>
      <point x="536.0" y="1648.0" type="curve" smooth="yes"/>
      <point x="536.0" y="1723.4"/>
      <point x="482.6" y="1783.2"/>
      <point x="290.4" y="1795.4" type="curve"/>
    </contour>
  </outline>
</glyph>
<glyph name="one.lf" format="2">
  <advance width="723.0"/>
  <outline>
    <contour>
      <point x="199.0" y="89.4" type="line"/>
      <point x="5.4" y="38.8" type="line"/>
      <point x="-6.6" y="0.0" type="line"/>
      <point x="531.6" y="0.0" type="line"/>
      <point x="543.8" y="38.8" type="line"/>
      <point x="385.4" y="86.6" type="line"/>
      <point x="774.2" y="1356.0" type="line"/>
      <point x="713.2" y="1356.0" type="line"/>
      <point x="227.0" y="1110.0" type="line"/>
      <point x="244.8" y="1064.0" type="line"/>
      <point x="590.4" y="1159.6" type="line"/>
      <point x="552.8" y="1245.0" type="line"/>
    </contour>
  </outline>
</glyph>
<glyph name="tildecomb.case" format="2">
  <anchor x="278.4" y="1340.0" name="_UCtop"/>
  <anchor x="380.6" y="1677.0" name="UCtop"/>
  <outline>
    <contour>
      <point x="659.2" y="1716.0" type="curve"/>
      <point x="590.0" y="1716.0" type="line"/>
      <point x="547.8" y="1627.4"/>
      <point x="521.0" y="1611.2"/>
      <point x="490.0" y="1611.2" type="curve" smooth="yes"/>
      <point x="426.6" y="1611.2"/>
      <point x="353.2" y="1724.0"/>
      <point x="273.2" y="1724.0" type="curve" smooth="yes"/>
      <point x="192.8" y="1724.0"/>
      <point x="143.6" y="1678.4"/>
      <point x="54.6" y="1476.0" type="curve"/>
      <point x="123.8" y="1476.0" type="line"/>
      <point x="166.0" y="1564.6"/>
      <point x="192.8" y="1580.8"/>
      <point x="223.8" y="1580.8" type="curve" smooth="yes"/>
      <point x="287.2" y="1580.8"/>
      <point x="360.6" y="1468.0"/>
      <point x="440.6" y="1468.0" type="curve" smooth="yes"/>
      <point x="521.0" y="1468.0"/>
      <point x="570.2" y="1513.6"/>
    </contour>
  </outline>
</glyph>
<glyph name="uni0302.case" format="2">
  <anchor x="278.4" y="1340.0" name="_UCtop"/>
  <anchor x="391.8" y="1716.0" name="UCtop"/>
  <outline>
    <contour>
      <point x="37.8" y="1476.0" type="line"/>
      <point x="136.0" y="1476.0" type="line"/>
      <point x="385.6" y="1604.2" type="line"/>
      <point x="355.6" y="1604.2" type="line"/>
      <point x="527.2" y="1476.0" type="line"/>
      <point x="603.0" y="1476.0" type="line"/>
      <point x="477.0" y="1716.0" type="line"/>
      <point x="310.8" y="1716.0" type="line"/>
    </contour>
  </outline>
</glyph>
<glyph name="uni0302_gravecomb.case" format="2">
  <anchor x="278.4" y="1340.0" name="_UCtop"/>
  <outline>
    <contour>
      <point x="135.0" y="1626.0" type="line"/>
      <point x="93.4" y="1842.0" type="line"/>
      <point x="-123.4" y="1842.0" type="line"/>
      <point x="-125.4" y="1823.8" type="line"/>
      <point x="79.0" y="1626.0" type="line"/>
    </contour>
    <contour>
      <point x="37.8" y="1476.0" type="line"/>
      <point x="136.0" y="1476.0" type="line"/>
      <point x="385.6" y="1604.2" type="line"/>
      <point x="355.6" y="1604.2" type="line"/>
      <point x="527.2" y="1476.0" type="line"/>
      <point x="603.0" y="1476.0" type="line"/>
      <point x="477.0" y="1716.0" type="line"/>
      <point x="310.8" y="1716.0" type="line"/>
    </contour>
  </outline>
</glyph>
<glyph name="uni0304.case" format="2">
  <anchor x="278.4" y="1340.0" name="_UCtop"/>
  <anchor x="392.6" y="1716.0" name="UCtop"/>
  <outline>
    <contour>
      <point x="90.6" y="1541.2" type="line"/>
      <point x="588.6" y="1541.2" type="line"/>
      <point x="622.6" y="1651.0" type="line"/>
      <point x="124.4" y="1651.0" type="line"/>
    </contour>
  </outline>
</glyph>
<glyph name="uni0306_acutecomb" format="2">
  <anchor x="130.6" y="856.0" name="_top"/>
  <outline>
    <contour>
      <point x="177.0" y="1189.0" type="line"/>
      <point x="238.2" y="1189.0" type="line"/>
      <point x="557.6" y="1458.2" type="line"/>
      <point x="559.6" y="1476.0" type="line"/>
      <point x="333.6" y="1476.0" type="line"/>
    </contour>
    <contour>
      <point x="195.6" y="1090.6" type="curve" smooth="yes"/>
      <point x="82.4" y="1090.6"/>
      <point x="46.6" y="1124.2"/>
      <point x="45.8" y="1206.8" type="curve"/>
      <point x="-8.0" y="1206.8" type="line"/>
      <point x="-26.2" y="1020.6"/>
      <point x="31.6" y="957.0"/>
      <point x="167.8" y="957.0" type="curve" smooth="yes"/>
      <point x="304.0" y="957.0"/>
      <point x="376.4" y="999.8"/>
      <point x="484.4" y="1206.8" type="curve"/>
      <point x="416.2" y="1206.8" type="line"/>
      <point x="364.6" y="1120.8"/>
      <point x="303.2" y="1090.6"/>
    </contour>
  </outline>
</glyph>
<glyph name="uni0306_tildecomb.case" format="2">
  <anchor x="278.4" y="1340.0" name="_UCtop"/>
  <outline>
    <contour>
      <point x="327.8" y="1546.6" type="curve" smooth="yes"/>
      <point x="229.0" y="1546.6"/>
      <point x="188.0" y="1573.6"/>
      <point x="182.2" y="1643.8" type="curve"/>
      <point x="129.4" y="1643.8" type="line"/>
      <point x="124.6" y="1489.0"/>
      <point x="178.0" y="1428.0"/>
      <point x="315.4" y="1428.0" type="curve" smooth="yes"/>
      <point x="450.0" y="1428.0"/>
      <point x="529.0" y="1480.4"/>
      <point x="614.0" y="1643.8" type="curve"/>
      <point x="552.0" y="1643.8" type="line"/>
      <point x="509.0" y="1577.2"/>
      <point x="445.8" y="1546.6"/>
    </contour>
    <contour>
      <point x="674.6" y="1846.0" type="curve"/>
      <point x="613.8" y="1846.0" type="line"/>
      <point x="578.6" y="1800.0"/>
      <point x="554.4" y="1785.0"/>
      <point x="515.6" y="1785.0" type="curve" smooth="yes"/>
      <point x="462.4" y="1785.0"/>
      <point x="398.4" y="1848.6"/>
      <point x="340.0" y="1848.6" type="curve" smooth="yes"/>
      <point x="262.6" y="1848.6"/>
      <point x="222.0" y="1799.0"/>
      <point x="133.4" y="1670.0" type="curve"/>
      <point x="194.2" y="1670.0" type="line"/>
      <point x="228.6" y="1716.0"/>
      <point x="252.8" y="1731.0"/>
      <point x="291.6" y="1731.0" type="curve" smooth="yes"/>
      <point x="344.8" y="1731.0"/>
      <point x="406.4" y="1667.4"/>
      <point x="468.0" y="1667.4" type="curve" smooth="yes"/>
      <point x="545.4" y="1667.4"/>
      <point x="586.0" y="1717.0"/>
    </contour>
  </outline>
</glyph>
<glyph name="uni030C.case" format="2">
  <anchor x="278.4" y="1340.0" name="_UCtop"/>
  <anchor x="392.6" y="1716.0" name="UCtop"/>
  <outline>
    <contour>
      <point x="676.8" y="1716.0" type="line"/>
      <point x="578.6" y="1716.0" type="line"/>
      <point x="329.0" y="1587.8" type="line"/>
      <point x="359.0" y="1587.8" type="line"/>
      <point x="187.4" y="1716.0" type="line"/>
      <point x="111.6" y="1716.0" type="line"/>
      <point x="237.6" y="1476.0" type="line"/>
      <point x="403.8" y="1476.0" type="line"/>
    </contour>
  </outline>
</glyph>
<glyph name="uni20BC.lf" format="2">
  <advance width="1080.8"/>
  <outline>
    <contour>
      <point x="719.8" y="1050.6" type="curve" smooth="yes"/>
      <point x="898.8" y="1050.6"/>
      <point x="890.4" y="821.8"/>
      <point x="675.6" y="0.0" type="curve"/>
      <point x="862.8" y="0.0" type="line"/>
      <point x="1042.6" y="870.8"/>
      <point x="987.0" y="1140.0"/>
      <point x="746.2" y="1140.0" type="curve" smooth="yes"/>
      <point x="503.8" y="1140.0"/>
      <point x="302.6" y="870.8"/>
      <point x="-41.4" y="0.0" type="curve"/>
      <point x="146.0" y="0.0" type="line"/>
      <point x="438.0" y="834.6"/>
      <point x="546.6" y="1050.6"/>
    </contour>
    <contour>
      <point x="368.8" y="0.0" type="line"/>
      <point x="451.8" y="0.0" type="line"/>
      <point x="862.6" y="1340.0" type="line"/>
      <point x="778.8" y="1340.0" type="line"/>
    </contour>
  </outline>
</glyph>
